HIERARCHY
ROOT hip
{
  OFFSET 0 0 0
  CHANNELS 6 Xposition Yposition Zposition Zrotation Yrotation Xrotation
  JOINT abdomen
  {
    OFFSET 0 20.6881 -0.73152
    CHANNELS 3 Zrotation Xrotation Yrotation
    JOINT chest
    {
      OFFSET 0 11.7043 -0.48768
      CHANNELS 3 Zrotation Xrotation Yrotation
      JOINT neck
      {
        OFFSET 0 22.1894 -2.19456
        CHANNELS 3 Zrotation Xrotation Yrotation
        JOINT head
        {
          OFFSET -0.24384 7.07133 1.2192
          CHANNELS 3 Zrotation Xrotation Yrotation
          JOINT leftEye
          {
            OFFSET 4.14528 8.04674 8.04672
            CHANNELS 3 Zrotation Xrotation Yrotation
            End Site
            {
              OFFSET 1 0 0
            }
          }
          JOINT rightEye
          {
            OFFSET -3.6576 8.04674 8.04672
            CHANNELS 3 Zrotation Xrotation Yrotation
            End Site
            {
              OFFSET 1 0 0
            }
          }
        }
      }
      JOINT rCollar
      {
        OFFSET -2.68224 19.2634 -4.8768
        CHANNELS 3 Zrotation Xrotation Yrotation
        JOINT rShldr
        {
          OFFSET -8.77824 -1.95073 1.46304
          CHANNELS 3 Zrotation Xrotation Yrotation
          JOINT rForeArm
          {
            OFFSET -28.1742 -1.7115 0.48768
            CHANNELS 3 Zrotation Xrotation Yrotation
            JOINT rHand
            {
              OFFSET -22.5879 0.773209 7.07136
              CHANNELS 3 Zrotation Xrotation Yrotation
              JOINT rThumb1
              {
                OFFSET -1.2192 -0.487915 3.41376
                CHANNELS 3 Zrotation Xrotation Yrotation
                JOINT rThumb2
                {
                  OFFSET -3.37035 -0.52449 3.41376
                  CHANNELS 3 Zrotation Xrotation Yrotation
                  End Site
                  {
                    OFFSET -1.78271 -1.18214 1.43049
                  }
                }
              }
              JOINT rIndex1
              {
                OFFSET -7.75947 0.938293 5.60832
                CHANNELS 3 Zrotation Xrotation Yrotation
                JOINT rIndex2
                {
                  OFFSET -2.54057 -0.884171 1.56538
                  CHANNELS 3 Zrotation Xrotation Yrotation
                  End Site
                  {
                    OFFSET -1.62519 -0.234802 1.16502
                  }
                }
              }
              JOINT rMid1
              {
                OFFSET -8.24714 1.18213 3.41376
                CHANNELS 3 Zrotation Xrotation Yrotation
                JOINT rMid2
                {
                  OFFSET -3.10165 -0.590103 1.0647
                  CHANNELS 3 Zrotation Xrotation Yrotation
                  End Site
                  {
                    OFFSET -2.48547 -0.328903 0.83742
                  }
                }
              }
              JOINT rRing1
              {
                OFFSET -8.82822 0.546677 1.51678
                CHANNELS 3 Zrotation Xrotation Yrotation
                JOINT rRing2
                {
                  OFFSET -2.60934 -0.819778 -0.0198488
                  CHANNELS 3 Zrotation Xrotation Yrotation
                  End Site
                  {
                    OFFSET -2.33842 -0.294052 0.168128
                  }
                }
              }
              JOINT rPinky1
              {
                OFFSET -8.27202 -0.0477905 -0.4584
                CHANNELS 3 Zrotation Xrotation Yrotation
                JOINT rPinky2
                {
                  OFFSET -1.82734 -0.647385 -0.700984
                  CHANNELS 3 Zrotation Xrotation Yrotation
                  End Site
                  {
                    OFFSET -1.69225 -0.51767 -0.607171
                  }
                }
              }
            }
          }
        }
      }
      JOINT lCollar
      {
        OFFSET 2.68224 19.2634 -4.8768
        CHANNELS 3 Zrotation Xrotation Yrotation
        JOINT lShldr
        {
          OFFSET 8.77824 -1.95073 1.46304
          CHANNELS 3 Zrotation Xrotation Yrotation
          JOINT lForeArm
          {
            OFFSET 28.1742 -1.7115 0.48768
            CHANNELS 3 Zrotation Xrotation Yrotation
            JOINT lHand
            {
              OFFSET 22.5879 0.773209 7.07136
              CHANNELS 3 Zrotation Xrotation Yrotation
              JOINT lThumb1
              {
                OFFSET 1.2192 -0.487915 3.41376
                CHANNELS 3 Zrotation Xrotation Yrotation
                JOINT lThumb2
                {
                  OFFSET 3.37035 -0.52449 3.41376
                  CHANNELS 3 Zrotation Xrotation Yrotation
                  End Site
                  {
                    OFFSET 1.78271 -1.18214 1.43049
                  }
                }
              }
              JOINT lIndex1
              {
                OFFSET 7.75947 0.938293 5.60832
                CHANNELS 3 Zrotation Xrotation Yrotation
                JOINT lIndex2
                {
                  OFFSET 2.54057 -0.884171 1.56538
                  CHANNELS 3 Zrotation Xrotation Yrotation
                  End Site
                  {
                    OFFSET 1.62519 -0.234802 1.16502
                  }
                }
              }
              JOINT lMid1
              {
                OFFSET 8.24714 1.18213 3.41376
                CHANNELS 3 Zrotation Xrotation Yrotation
                JOINT lMid2
                {
                  OFFSET 3.10165 -0.590103 1.0647
                  CHANNELS 3 Zrotation Xrotation Yrotation
                  End Site
                  {
                    OFFSET 2.48547 -0.328903 0.83742
                  }
                }
              }
              JOINT lRing1
              {
                OFFSET 8.82822 0.546677 1.51678
                CHANNELS 3 Zrotation Xrotation Yrotation
                JOINT lRing2
                {
                  OFFSET 2.60934 -0.819778 -0.0198488
                  CHANNELS 3 Zrotation Xrotation Yrotation
                  End Site
                  {
                    OFFSET 2.33842 -0.294052 0.168128
                  }
                }
              }
              JOINT lPinky1
              {
                OFFSET 8.27202 -0.0477905 -0.4584
                CHANNELS 3 Zrotation Xrotation Yrotation
                JOINT lPinky2
                {
                  OFFSET 1.82734 -0.647385 -0.700984
                  CHANNELS 3 Zrotation Xrotation Yrotation
                  End Site
                  {
                    OFFSET 1.69225 -0.51767 -0.607171
                  }
                }
              }
            }
          }
        }
      }
    }
  }
  JOINT rButtock
  {
    OFFSET -8.77824 4.35084 1.2192
    CHANNELS 3 Zrotation Xrotation Yrotation
    JOINT rThigh
    {
      OFFSET 0 -1.70687 -2.19456
      CHANNELS 3 Zrotation Xrotation Yrotation
      JOINT rShin
      {
        OFFSET 0 -36.8199 0.73152
        CHANNELS 3 Zrotation Xrotation Yrotation
        JOINT rFoot
        {
          OFFSET 0.73152 -45.1104 -5.12064
          CHANNELS 3 Zrotation Xrotation Yrotation
          End Site
          {
            OFFSET -1.1221 -3.69964 12.103
          }
        }
      }
    }
  }
  JOINT lButtock
  {
    OFFSET 8.77824 4.35084 1.2192
    CHANNELS 3 Zrotation Xrotation Yrotation
    JOINT lThigh
    {
      OFFSET 0 -1.70687 -2.19456
      CHANNELS 3 Zrotation Xrotation Yrotation
      JOINT lShin
      {
        OFFSET 0 -36.8199 0.73152
        CHANNELS 3 Zrotation Xrotation Yrotation
        JOINT lFoot
        {
          OFFSET -0.73152 -45.1104 -5.12064
          CHANNELS 3 Zrotation Xrotation Yrotation
          End Site
          {
            OFFSET 1.1221 -3.69964 12.103
          }
        }
      }
    }
  }
}
MOTION
Frames:	4
Frame Time:	0.03333
3.4945618361234665 66.95557832717896 -1.3917600736021996 -7.621852491046834 6.0483894959138125 2.2120852556423904 -2.436992285953509 15.848666789712745 4.331932221638343 3.268699725430907 -10.494421735184511 1.4146596028263438 -5.054321202789218 16.049964417384068 -3.2587280761295117 8.930141075616927 -26.875375412200103 -4.131648023285121 -0.06873406124768949 -0.08367665419193282 0.0048730198076867536 -0.2926045569914058 0.20984496908735956 0.040171357397033314 -0.31358060154104384 0.028133655912988303 -0.020669859975751086 51.49800758706285 33.011349277614634 18.14919573803081 -25.98851803715626 -32.748636296473855 72.97532569630367 -5.736575138603452 -13.53774058593063 -5.865653761085645 -0.08181846254161251 0.33086570257665693 0.09747426997548665 -0.1688377406102195 0.12405683261664738 -0.27400883336751714 0.21166057210696645 0.10809094526662523 0.041863106542027545 8.124933489458709 5.972736613119459 0.23782724026069688 0.23115740045362076 -0.06675005137635946 -0.05773505544558888 3.0850370058663223 0.8863078116199216 0.3305239263138918 -0.2728269971976934 -0.04529922863812617 0.24273510470532128 11.098842250311865 0.5580219728783989 0.17082912761946167 0.24131165059360832 -0.19011109849195146 -0.10778486741444403 2.2276561659593153 -0.8270281195657049 -0.5645260205155436 -0.4934513921775082 -0.10011363116159412 0.4217953439863756 -61.23906628698413 33.42092840138362 -30.182701564934728 25.429328742260026 -30.301328290439507 -69.21144067114143 5.57982101649119 -15.688603014060789 4.262036334540664 -0.11170480902864956 0.037129348555225664 0.35336223794898974 0.28240260224893393 -0.11165344920774223 0.013291814929109268 0.18501136176054522 0.027784722625829244 0.07466570701587533 -8.626442690587833 5.615140351576149 -0.4557341804461987 0.14457792253453913 0.10376338009718745 0.2507282669836609 -3.0788640089605117 1.0921868420378837 0.01625456956416097 -0.13050314381096426 -0.18338145450899804 0.22061457658288294 -10.830977598989598 0.9117509599693067 -0.03218369128654141 0.04684714693920675 0.26901884657029396 0.3200344899764712 -2.4106132416052732 -0.6560249421843269 0.9149926317824182 -0.1652818267344345 0.3847742245810255 -0.26004712629121773 -35.0619462362763 -39.06130544816932 -30.838775385660302 -6.177585939159189 67.46567164004284 7.668629895351312 -5.26693474636796 -11.165474160759924 -11.580611350966008 -0.12752197968166526 0.09155694492619537 0.13410905680590787 41.52912109718663 -37.05653564374386 33.96556768580044 6.0525985999898335 68.1251673855426 -7.498255095373576 5.13965246363748 -10.495331857891415 14.759027928400393
3.4193096682429314 66.12547636032104 -1.731090061366558 -7.422272655951769 6.11322250528922 2.2270574571898814 -2.484438621909826 15.703503071735172 4.263055740274289 3.1216434047230055 -10.383122095111862 1.3561073792795864 -4.998647477090798 15.987702120457524 -3.270300551017629 8.890953719027625 -26.55686490818219 -4.3171995035986255 -0.06811899737684456 -0.07562650252270588 -0.011735438932845501 -0.20765598683986303 0.14850917664955748 0.012305039357027541 -0.23739197578366725 0.01014539223840769 -0.02441024231997932 51.04667551689758 32.673258328793594 17.836571149530155 -25.681419071694148 -32.24594461884467 71.9510841887469 -5.520493566473636 -13.02781232287582 -5.716471330555166 -0.05630952026061317 0.20600973782711807 0.11427931009806834 -0.1506997997432804 0.10826740960713485 -0.18584902042922383 0.1628248262630811 0.10574264085261022 0.046056202362180686 8.055549012775133 5.891803994096685 0.28282815505073744 0.17785201616947605 -0.05423629104324985 -0.039975923273321036 3.025509345928722 0.9417765782823885 0.2511918127127227 -0.20260336774155932 -0.048021272465787815 0.18797342270450937 10.981795006052648 0.6051748241438166 0.12235314064576555 0.1907104075709804 -0.14171152425959485 -0.10124197307639494 2.2227870948547426 -0.8356350116935672 -0.49363121825175 -0.4212763563311604 -0.09471169858005452 0.3310399524417716 -60.880098864964936 33.247820671964234 -29.467601249401902 25.089082868755842 -30.01351777919351 -68.29146883145407 5.401238463565213 -15.482488395477313 4.244813585661654 -0.08508702822458096 0.05631609698573195 0.2542184136082581 0.21142893264456783 -0.10407225939414542 0.018305707388427534 0.14862454281350723 0.005012124881066261 0.05851316340244142 -8.466944966863341 5.650565981480066 -0.4404528061170587 0.1333495184258613 0.10569517637396392 0.19908992910467535 -3.0217307572138243 1.0657307446180742 -0.03877348981428145 -0.052579329839287064 -0.14225283009153158 0.19290706044107997 -10.78299039742838 0.8947565955406687 -0.04945595903703428 0.045180740864282316 0.18857909506524553 0.22716600865739456 -2.413113517728321 -0.677982026014361 0.7445186339791575 -0.12277563853874109 0.29110202209570873 -0.20273041993229213 -34.76272930911638 -38.63924073859756 -30.50407221066758 -6.048316071380235 66.76751702384082 7.433858364331403 -5.159141127773642 -10.961282240427808 -11.349165268298247 -0.09434871804837197 0.07824458606872317 0.12896667141282872 40.99379136060854 -36.48015988534858 33.47852738665434 5.92509604365862 67.26087524796918 -7.370330774861114 5.153587757091598 -10.450062217846218 14.677799903696016
3.3770274370908737 65.97139835357666 -2.0433006808161736 -7.440109694969257 6.018846366432569 2.2223996950627556 -2.482001098149777 15.63428422713897 4.263948360621445 3.088851239630951 -10.382946217740734 1.353517030036859 -5.0038298831235455 15.931460635284347 -3.238841766917608 8.882888973165132 -26.504757395004166 -4.261333251942976 -0.040181309196097435 -0.08057326702908761 0.02046975677741087 -0.2399010030865891 0.13111033695600782 0.023726609753169804 -0.2430306171086301 0.008942318449133412 -0.0026537419359615164 50.98181604053914 32.6054038144841 17.787260598817245 -25.615432614122657 -32.16012329192346 71.79450893221353 -5.500679187691429 -13.08312148722729 -5.73507804651475 -0.06793877109620614 0.25867529880467655 0.09953954842576926 -0.10133183275266293 0.08551700997717442 -0.204951351990457 0.1425691532274678 0.08065194093656838 0.02719314086530953 8.047327172561731 5.8478209909363885 0.3077003422741918 0.1394050147336065 -0.05965668647988965 -0.0051145310278701735 3.0367731816437193 0.8915528099331096 0.26779381479005515 -0.17620127150487502 -0.005618711046408185 0.19244394159884137 10.92823949277058 0.5942687195865988 0.12875537577559468 0.1660607884649333 -0.1355257207490905 -0.0615985946382889 2.216931915188749 -0.8038475247397394 -0.47978642480413414 -0.3238218298712433 -0.03889152402087573 0.3582488647741636 -60.71329198505488 33.159557552414746 -29.453633512549224 24.985223012236627 -29.905587129928968 -68.11145919587838 5.403740874122377 -15.426984570734497 4.242983948737737 -0.047342228932326896 0.007300098180781695 0.27424554211094043 0.19752843046653407 -0.11745609511406474 0.03529729705271519 0.15210913990940378 0.042862845466308405 0.040827562485457 -8.441715101842961 5.643607726263116 -0.4408844954169447 0.150157973643028 0.04886597476704798 0.20776016056491894 -3.03210666833672 1.0437430850193337 -0.02901720491515292 -0.09549682348906219 -0.1420323430473871 0.16095031286188283 -10.766900179291122 0.8323568410570784 -0.06322028431849092 0.026666232458493377 0.20628121116619963 0.23351755097697752 -2.3530744473766165 -0.6712177374976682 0.7022940843650213 -0.13261324537767508 0.3063408144642419 -0.19955608951552872 -34.66363350954325 -38.522150805656025 -30.432303997963672 -6.078452573545624 66.58603206740442 7.456538861244076 -5.148716124666087 -10.9666593068519 -11.324040417436356 -0.11468405216724449 0.08915010365655923 0.11765224960929105 40.91886760050809 -36.42698686266003 33.45240874326821 5.9108943728268715 67.13496754080917 -7.351248080093745 5.141092779778706 -10.451246401893568 14.655234666225587
3.3937428146600723 66.3930356502533 -2.3816561326384544 -7.612114348837689 5.859086534198678 2.2014002784595514 -2.4480038315560386 15.663611351887711 4.3127086542193425 3.154768114650275 -10.470283846657686 1.3955265354138455 -5.056669934090056 15.915672653017863 -3.2019019694520634 8.894987799506163 -26.674788124202465 -4.0512605387354785 -0.012228226409291344 -0.09485092371535302 0.06829522159351617 -0.3370828555882346 0.15775261039155325 0.06688380035413005 -0.30398162443623716 0.013852904297255237 0.03081525221415878 51.24208722905164 32.76818429787843 17.940810081548303 -25.767605813735955 -32.42350221650832 72.36392131274998 -5.632385725456785 -13.513942499315014 -5.859793458777775 -0.10398392050218483 0.40864490863700026 0.07789297139870635 -0.05048310209432784 0.06661547530536904 -0.29605198825326395 0.15238317456942407 0.05590018915808842 0.0049446534176392455 8.085501099832932 5.859602213481014 0.29359029202685616 0.13802490297465403 -0.07127868023948947 0.0229847604958565 3.0912768105599517 0.7942699986977948 0.3437400221927492 -0.21012906226814979 0.03651288396199234 0.24317245025561365 10.958980466677513 0.5472483099580558 0.17895064942942995 0.1757872980081488 -0.16630831612128014 -0.026212131600393308 2.21279538187266 -0.7628256220280544 -0.5103685968128662 -0.26107064081051473 0.01785326071676708 0.4517512730255821 -60.781976367348534 33.17588511962566 -29.966833436216472 25.109457323049988 -29.977905172861064 -68.56670496443807 5.535569074632323 -15.506732151936275 4.251664692286 -0.016137976100594736 -0.05464747643541255 0.3702876601556929 0.23028809879917797 -0.13959409891582478 0.04961006518018269 0.1850118686886477 0.10296162661239772 0.026413088572379777 -8.52922433926281 5.6065266292591165 -0.4469171532796527 0.1726431698341215 -0.016984225866588737 0.24731962906185434 -3.094094477035994 1.0357939187642025 0.028689782721815434 -0.20274402694977928 -0.16607887779406325 0.14317058340039915 -10.78509068059816 0.7773127734227688 -0.057143390308736525 0.010003559091424145 0.2857575057918796 0.3109269663267881 -2.2852045651414925 -0.6514743286498059 0.7834737641366789 -0.18064697760261286 0.3870214635396655 -0.2357066799668195 -34.76307423366947 -38.68368477952683 -30.59179574527264 -6.2021165635632896 66.88364390010938 7.649223620372013 -5.212301770744321 -11.12825987506711 -11.462274054727304 -0.1631417363683991 0.10465580701125178 0.10602822813728138 41.232554283424676 -36.78374471848272 33.782713276435445 5.991134581422535 67.61773897172401 -7.417696429207861 5.1156469100258235 -10.479607054874753 14.684310781522331
